<svg width="106" height="23" viewBox="0 0 106 23" fill="none" xmlns="http://www.w3.org/2000/svg">
<g clip-path="url(#clip0_338_12229)">
<path d="M22.8547 9.96095C22.6671 9.96033 22.4813 9.99708 22.308 10.0691C22.135 10.141 21.9781 10.2467 21.8468 10.3799C21.7066 10.5097 21.5955 10.6672 21.5206 10.8424C21.4456 11.0175 21.4085 11.2064 21.4117 11.3968V16.7181C21.408 17.1026 21.3524 17.4849 21.2464 17.8547C21.1365 18.2535 20.953 18.6287 20.7054 18.9609C20.4355 19.3162 20.0852 19.6033 19.683 19.7989C19.1703 20.035 18.6088 20.1475 18.0442 20.127H5.92371C5.5208 20.1301 5.11993 20.0697 4.73597 19.9482C4.38875 19.8408 4.06311 19.6739 3.77373 19.4549C3.52004 19.2642 3.30125 19.0315 3.12691 18.7669C2.97038 18.5316 2.88668 18.2558 2.88616 17.9737C2.88774 17.6906 2.80467 17.4134 2.64751 17.1774C2.49035 16.9414 2.26622 16.7572 2.00355 16.6481C1.74088 16.5391 1.45155 16.5101 1.17231 16.565C0.893069 16.6198 0.636517 16.756 0.435247 16.9561C0.295232 17.0861 0.184172 17.2437 0.109232 17.419C0.0342923 17.5943 -0.00286049 17.7832 0.000171729 17.9737C0.0015269 18.6182 0.13991 19.2552 0.406242 19.8429C0.670941 20.443 1.04291 20.9903 1.50408 21.4583C1.96562 21.9282 2.51069 22.3088 3.11168 22.5812C3.71976 22.86 4.38182 23.0029 5.0514 23.0001H18.6446C19.466 23.0107 20.2755 22.8041 20.9904 22.4015C21.6828 22.0103 22.2909 21.4868 22.7792 20.8611C23.7518 19.6041 24.2852 18.0655 24.2984 16.4794V11.3946C24.2989 11.206 24.2619 11.0192 24.1894 10.8449C24.1169 10.6706 24.0107 10.5123 23.8764 10.379C23.7423 10.2458 23.5828 10.1402 23.4076 10.0685C23.2322 9.99674 23.0444 9.96018 22.8547 9.96095Z" fill="#0F172A"/>
<path d="M78.2196 16.2064C77.8523 15.8436 77.4183 15.5542 76.9413 15.354C76.4423 15.143 75.9049 15.0363 75.3628 15.0403H58.7349C58.5867 15.0407 58.4398 15.0118 58.3029 14.9552C58.1659 14.8986 58.0415 14.8155 57.9373 14.7107C57.8276 14.6127 57.74 14.4927 57.6803 14.3585C57.6204 14.2244 57.5899 14.0793 57.5907 13.9326C57.5866 13.7832 57.6156 13.6348 57.6755 13.4977C57.7354 13.3607 57.8248 13.2384 57.9373 13.1393C58.1521 12.9357 58.4381 12.823 58.7349 12.8249H77.0502C77.4331 12.8249 77.8002 12.6736 78.071 12.4044C78.3416 12.1351 78.4939 11.7699 78.4939 11.3891C78.4939 11.0083 78.3416 10.6431 78.071 10.3738C77.8002 10.1045 77.4331 9.95328 77.0502 9.95328H58.7922C58.2544 9.94853 57.7216 10.0556 57.2282 10.2677C56.277 10.676 55.5187 11.4303 55.1086 12.3763C54.9003 12.8687 54.793 13.3974 54.793 13.9315C54.793 14.4656 54.9003 14.9944 55.1086 15.4867C55.5187 16.4327 56.277 17.187 57.2282 17.5953C57.7218 17.8066 58.2546 17.9134 58.7922 17.909H75.4852C75.6315 17.908 75.7762 17.9367 75.9108 17.9934C76.0453 18.0501 76.1667 18.1335 76.2677 18.2386C76.3752 18.3436 76.4598 18.4694 76.5167 18.6081C76.5736 18.7469 76.6013 18.8957 76.5983 19.0456C76.6004 19.1887 76.5721 19.3307 76.5152 19.4622C76.4581 19.5937 76.3737 19.7117 76.2677 19.8085C76.1645 19.9097 76.0423 19.9896 75.9082 20.0435C75.7738 20.0975 75.6302 20.1245 75.4852 20.123H57.1397C56.7568 20.123 56.3895 20.2742 56.1188 20.5435C55.848 20.8128 55.6959 21.178 55.6959 21.5588C55.6959 21.9397 55.848 22.3049 56.1188 22.574C56.3895 22.8433 56.7568 22.9947 57.1397 22.9947H75.3641C75.9049 22.9985 76.4414 22.8969 76.9429 22.6952C77.4207 22.5046 77.8553 22.22 78.2205 21.8588C78.583 21.4973 78.8738 21.0711 79.0776 20.6025C79.2902 20.1115 79.3975 19.5817 79.3923 19.047C79.3962 18.5078 79.2891 17.9735 79.0776 17.477C78.876 17.0029 78.5848 16.5715 78.2196 16.2064Z" fill="#0F172A"/>
<path d="M105.495 10.375C105.293 10.1738 105.036 10.0368 104.755 9.98126C104.475 9.92576 104.184 9.95424 103.92 10.0632C103.656 10.1721 103.431 10.3564 103.272 10.593C103.114 10.8295 103.029 11.1075 103.03 11.3918V15.9978C102.469 15.6782 101.867 15.4356 101.241 15.2767C100.627 15.12 99.9952 15.0398 99.3612 15.038H88.9238C88.5292 15.0341 88.1362 14.9889 87.7511 14.9031C87.3299 14.8135 86.9278 14.6515 86.5626 14.4243C86.1802 14.1832 85.8604 13.8552 85.6303 13.4673C85.362 12.9884 85.232 12.4451 85.2545 11.8974V11.3889C85.2545 11.0081 85.1024 10.6429 84.8318 10.3737C84.561 10.1044 84.1939 9.95312 83.811 9.95312C83.4281 9.95312 83.0607 10.1044 82.7901 10.3737C82.5193 10.6429 82.3672 11.0081 82.3672 11.3889V21.5573C82.3672 21.938 82.5193 22.3032 82.7901 22.5725C83.0607 22.8416 83.4281 22.9929 83.811 22.9929C84.1939 22.9929 84.561 22.8416 84.8318 22.5725C85.1024 22.3032 85.2545 21.938 85.2545 21.5573V16.9533C85.8152 17.2734 86.417 17.516 87.0435 17.6745C87.6575 17.8317 88.2889 17.9118 88.923 17.9132H99.359C99.7428 17.918 100.125 17.958 100.502 18.0329C100.917 18.1108 101.314 18.2627 101.675 18.4815C102.049 18.7143 102.368 19.0259 102.608 19.3944C102.884 19.839 103.03 20.3516 103.028 20.8742V21.5622C103.028 21.9431 103.18 22.3083 103.451 22.5774C103.722 22.8468 104.089 22.9981 104.472 22.9981C104.855 22.9981 105.222 22.8468 105.493 22.5774C105.764 22.3083 105.916 21.9431 105.916 21.5622V11.394C105.919 11.2046 105.884 11.0164 105.812 10.8411C105.739 10.6658 105.632 10.5072 105.495 10.375Z" fill="#0F172A"/>
<path d="M51.4234 14.2335C51.1922 13.4944 50.8417 12.7976 50.3857 12.1702C49.9414 11.5589 49.3852 11.0364 48.7462 10.6299C48.0874 10.2161 47.3299 9.98388 46.5513 9.95703H45.0662L42.9525 12.8287H45.6196C46.2039 12.8061 46.7841 12.9348 47.3033 13.2022C47.7138 13.4247 48.0684 13.7366 48.341 14.1145C48.5884 14.4704 48.7613 14.8724 48.8485 15.2964C49.0287 16.0737 49.0287 16.8816 48.8485 17.6589C48.7613 18.0829 48.5884 18.485 48.341 18.8409C48.0686 19.2187 47.7138 19.5304 47.3033 19.7524C46.7841 20.0199 46.2039 20.1487 45.6196 20.126H33.4694C32.8799 20.1521 32.2939 20.0232 31.7704 19.7524C31.366 19.5274 31.0169 19.2161 30.748 18.8409C30.4986 18.4855 30.3246 18.0833 30.2366 17.6589C30.0564 16.8816 30.0564 16.0737 30.2366 15.2964C30.3246 14.872 30.4986 14.4699 30.748 14.1145C31.0171 13.7399 31.3663 13.4291 31.7704 13.2044C32.2939 12.9336 32.8799 12.8047 33.4694 12.8308H36.7883L34.6512 9.95918H32.8384C32.0261 9.94624 31.2256 10.1531 30.5224 10.5577C29.8451 10.9524 29.2525 11.4758 28.7786 12.0981C28.2957 12.7282 27.9245 13.4354 27.6807 14.1895C27.1847 15.6587 27.1793 17.248 27.6653 18.7205C27.8966 19.4596 28.247 20.1564 28.7031 20.7837C29.1467 21.3955 29.7031 21.9182 30.3426 22.324C31.0011 22.7382 31.7587 22.9704 32.5375 22.9968H46.251C47.0633 23.0102 47.864 22.8032 48.567 22.3984C49.2446 22.0035 49.8373 21.4801 50.3117 20.858C50.7941 20.2277 51.1653 19.5205 51.4096 18.7666C51.9056 17.2974 51.9108 15.708 51.4241 14.2356L51.4234 14.2335Z" fill="#0F172A"/>
<path d="M39.849 15.5175L43.3036 10.9375H36.3945L39.849 15.5175Z" fill="#CF4338"/>
<path d="M40.457 5.16062L44.0368 9.95844L47.6081 5.23562L43.9687 0.441406L40.457 5.16062Z" fill="#691C00"/>
<path d="M39.8768 5.85938L36.6797 10.0933H43.0739L39.8768 5.85938Z" fill="#9A281E"/>
<path d="M35.7167 9.95767L43.2356 0H35.8746L32.1367 5.2911L35.7167 9.95767Z" fill="#CF4338"/>
</g>
<defs>
<clipPath id="clip0_338_12229">
<rect width="106" height="23" fill="white"/>
</clipPath>
</defs>
</svg>
